<svg width="84" height="55" viewBox="0 0 84 55" fill="none" xmlns="http://www.w3.org/2000/svg">
<ellipse cx="47" cy="52" rx="37" ry="3" fill="black" fill-opacity="0.2"/>
<path d="M61.4125 27.3536L58.4351 26.0367C45.3181 20.235 30.1436 20.5472 17.209 26.745C11.0764 29.6835 5.99049 34.5847 2.87623 40.63C0.202471 45.8202 3.97053 52 9.80899 52H68.7959C75.1776 52 79.0451 44.9547 75.6189 39.5707C72.1923 34.1861 67.2495 29.9354 61.4125 27.3536Z" fill="url(#paint0_linear_45_41)" stroke="black" stroke-width="2"/>
<path d="M25.8555 28.8054L23.7558 31.1676C21.8778 33.2803 20.8405 36.0088 20.8405 38.8355M37.1393 29.4323L35.0396 31.7945C33.1617 33.9072 32.1243 36.6356 32.1243 39.4624M48.4232 30.0592L46.3235 32.4213C44.4455 34.5341 43.4082 37.2625 43.4082 40.0893" stroke="black" stroke-width="2" stroke-linecap="round"/>
<path d="M59.9351 12.8248L59.9292 12.84C59.7594 13.2927 59.6783 13.7739 59.6783 14.2768V16.8947C59.6783 17.3089 60.0141 17.6447 60.4283 17.6447H70.2679C70.6821 17.6447 71.0179 17.3089 71.0179 16.8947V15.3149C71.0179 14.9007 70.6821 14.5649 70.2679 14.5649H63.2546V14.3445C63.2546 14.061 63.3316 13.8374 63.4769 13.6436C63.6295 13.4402 63.8872 13.231 64.3044 13.0413L64.3044 13.0414L64.3075 13.0399L67.6901 11.4839C68.4713 11.1315 69.0977 10.8016 69.5438 10.4928L69.5438 10.4928L69.5485 10.4895C70.0267 10.153 70.413 9.7524 70.662 9.27521L70.6621 9.27526L70.6679 9.26369C70.9151 8.76914 71.0179 8.19433 71.0179 7.57422V5.18204C71.0179 3.87838 70.597 2.78734 69.6051 2.12366C68.69 1.49676 67.3266 1.25 65.6641 1.25C63.995 1.25 62.3763 1.39683 60.8087 1.69171C60.4542 1.75841 60.1974 2.06804 60.1974 2.42879V4.00852C60.1974 4.22987 60.2952 4.43991 60.4645 4.58241C60.6339 4.72491 60.8576 4.78533 61.0756 4.74748C62.881 4.43415 64.261 4.2846 65.2353 4.2846C66.2775 4.2846 66.8384 4.41177 67.0748 4.54687L67.0927 4.5568C67.1686 4.59742 67.3288 4.71815 67.3288 5.27232V7.28084C67.3288 7.58038 67.2507 7.80662 67.1136 7.99301C66.9707 8.18729 66.7292 8.38415 66.3338 8.55711L66.3338 8.5571L66.3299 8.55887L63.8998 9.63892C63.4298 9.83614 63.0365 10.0164 62.7264 10.1792C62.3626 10.3616 61.9834 10.5884 61.5891 10.8563C61.2024 11.1144 60.8718 11.382 60.6298 11.6632C60.3394 11.9933 60.1109 12.3853 59.9351 12.8248Z" fill="url(#paint1_linear_45_41)" stroke="black" stroke-width="1.5" stroke-linejoin="round"/>
<defs>
<linearGradient id="paint0_linear_45_41" x1="39" y1="40" x2="39" y2="54.5" gradientUnits="userSpaceOnUse">
<stop stop-color="#D1A12C"/>
<stop offset="1" stop-color="#5E4816"/>
</linearGradient>
<linearGradient id="paint1_linear_45_41" x1="65" y1="11" x2="65" y2="23.5" gradientUnits="userSpaceOnUse">
<stop stop-color="#D1A12C"/>
<stop offset="1" stop-color="#4D3A0E"/>
</linearGradient>
</defs>
</svg>
